<?xml version="1.0" encoding="utf-8"?>
<!-- Generator: Adobe Illustrator 19.0.0, SVG Export Plug-In . SVG Version: 6.00 Build 0)  -->
<svg version="1.1" id="Layer_1" xmlns="http://www.w3.org/2000/svg" xmlns:xlink="http://www.w3.org/1999/xlink" x="0px" y="0px"
	 viewBox="0 0 500 500" style="enable-background:new 0 0 500 500;" xml:space="preserve">
<g id="XMLID_1_">
	<path id="XMLID_3_" d="M97.5,221.2h-3.4v-19.7c0-1.6,0.1-3.5,0.3-5.7h-0.1c-0.3,1.3-0.6,2.3-0.9,2.8l-10,22.6h-1.7l-10-22.4
		c-0.3-0.7-0.6-1.7-0.9-3h-0.1c0.1,1.2,0.2,3.1,0.2,5.8v19.7h-3.3v-29.4h4.5l9,20.5c0.7,1.6,1.1,2.7,1.4,3.5h0.1
		c0.6-1.6,1.1-2.8,1.4-3.6l9.2-20.4h4.3V221.2z"/>
	<path id="XMLID_6_" d="M106.5,195c-0.6,0-1.1-0.2-1.5-0.6c-0.4-0.4-0.6-0.9-0.6-1.6c0-0.6,0.2-1.1,0.6-1.6c0.4-0.4,0.9-0.6,1.5-0.6
		c0.6,0,1.1,0.2,1.6,0.6c0.4,0.4,0.6,0.9,0.6,1.6c0,0.6-0.2,1.1-0.6,1.5C107.6,194.7,107.1,195,106.5,195z M108.1,221.2h-3.4v-21
		h3.4V221.2z"/>
	<path id="XMLID_7_" d="M129.2,220.3c-1.6,1-3.5,1.5-5.7,1.5c-3,0-5.4-1-7.2-2.9c-1.8-1.9-2.8-4.5-2.8-7.6c0-3.5,1-6.2,3-8.3
		c2-2.1,4.6-3.1,7.9-3.1c1.8,0,3.5,0.3,4.9,1v3.4c-1.6-1.1-3.2-1.6-5-1.6c-2.1,0-3.9,0.8-5.3,2.3c-1.4,1.5-2.1,3.6-2.1,6.1
		c0,2.5,0.6,4.4,1.9,5.8c1.3,1.4,3,2.1,5.2,2.1c1.8,0,3.5-0.6,5.2-1.8L129.2,220.3L129.2,220.3z"/>
	<path id="XMLID_8_" d="M145.2,203.7c-0.6-0.5-1.4-0.7-2.5-0.7c-1.4,0-2.6,0.7-3.6,2c-1,1.4-1.4,3.2-1.4,5.5v10.7h-3.4v-21h3.4v4.3
		h0.1c0.5-1.5,1.2-2.6,2.2-3.5c1-0.8,2.1-1.2,3.3-1.2c0.9,0,1.5,0.1,2,0.3V203.7z"/>
	<path id="XMLID_11_" d="M157.1,221.7c-3.1,0-5.6-1-7.4-2.9c-1.8-2-2.8-4.6-2.8-7.8c0-3.5,1-6.3,2.9-8.3c1.9-2,4.5-3,7.8-3
		c3.1,0,5.6,1,7.3,2.9c1.8,1.9,2.6,4.6,2.6,8c0,3.3-0.9,6-2.8,8C162.8,220.7,160.2,221.7,157.1,221.7z M157.3,202.6
		c-2.2,0-3.9,0.7-5.1,2.2c-1.3,1.5-1.9,3.5-1.9,6.1c0,2.5,0.6,4.4,1.9,5.9c1.3,1.4,3,2.1,5.1,2.1c2.2,0,3.8-0.7,5-2.1
		c1.2-1.4,1.8-3.4,1.8-6c0-2.6-0.6-4.6-1.8-6.1C161.2,203.3,159.5,202.6,157.3,202.6z"/>
	<path id="XMLID_12_" d="M171.6,220.5v-3.6c1.8,1.4,3.8,2,6,2c2.9,0,4.4-1,4.4-2.9c0-0.6-0.1-1-0.4-1.4c-0.3-0.4-0.6-0.7-1-1
		c-0.4-0.3-0.9-0.6-1.5-0.8c-0.6-0.2-1.2-0.5-1.9-0.7c-0.9-0.4-1.7-0.7-2.4-1.1c-0.7-0.4-1.3-0.8-1.8-1.3c-0.5-0.5-0.8-1-1.1-1.6
		c-0.2-0.6-0.4-1.3-0.4-2.1c0-1,0.2-1.9,0.7-2.6c0.5-0.8,1.1-1.4,1.8-1.9c0.8-0.5,1.6-0.9,2.6-1.2c1-0.3,2-0.4,3-0.4
		c1.8,0,3.4,0.3,4.9,0.9v3.4c-1.5-1-3.3-1.5-5.3-1.5c-0.6,0-1.2,0.1-1.7,0.2c-0.5,0.1-0.9,0.3-1.3,0.6c-0.4,0.3-0.6,0.6-0.8,0.9
		c-0.2,0.4-0.3,0.8-0.3,1.2c0,0.5,0.1,1,0.3,1.4c0.2,0.4,0.5,0.7,0.9,1c0.4,0.3,0.8,0.5,1.4,0.8c0.5,0.2,1.2,0.5,1.9,0.8
		c0.9,0.4,1.8,0.7,2.5,1.1c0.7,0.4,1.4,0.8,1.9,1.3c0.5,0.5,0.9,1,1.2,1.6c0.3,0.6,0.4,1.3,0.4,2.2c0,1-0.2,1.9-0.7,2.7
		c-0.5,0.8-1.1,1.4-1.8,1.9c-0.8,0.5-1.6,0.9-2.6,1.1c-1,0.2-2,0.4-3.1,0.4C175.1,221.7,173.2,221.3,171.6,220.5z"/>
	<path id="XMLID_15_" d="M199.4,221.7c-3.1,0-5.6-1-7.4-2.9c-1.8-2-2.8-4.6-2.8-7.8c0-3.5,1-6.3,2.9-8.3c1.9-2,4.5-3,7.8-3
		c3.1,0,5.6,1,7.3,2.9c1.8,1.9,2.6,4.6,2.6,8c0,3.3-0.9,6-2.8,8C205.1,220.7,202.6,221.7,199.4,221.7z M199.7,202.6
		c-2.2,0-3.9,0.7-5.1,2.2c-1.3,1.5-1.9,3.5-1.9,6.1c0,2.5,0.6,4.4,1.9,5.9c1.3,1.4,3,2.1,5.1,2.1c2.2,0,3.8-0.7,5-2.1
		c1.2-1.4,1.8-3.4,1.8-6c0-2.6-0.6-4.6-1.8-6.1C203.5,203.3,201.8,202.6,199.7,202.6z"/>
	<path id="XMLID_16_" d="M224.8,193.2c-0.7-0.4-1.4-0.6-2.2-0.6c-2.3,0-3.5,1.5-3.5,4.4v3.2h4.9v2.9h-4.9v18.1h-3.3v-18.1h-3.6v-2.9
		h3.6v-3.4c0-2.2,0.6-3.9,1.9-5.2c1.3-1.3,2.9-1.9,4.7-1.9c1,0,1.8,0.1,2.4,0.4L224.8,193.2L224.8,193.2z"/>
	<path id="XMLID_17_" d="M238.1,221c-0.8,0.4-1.8,0.7-3.1,0.7c-3.7,0-5.5-2-5.5-6.1v-12.4h-3.6v-2.9h3.6v-5.1l3.4-1.1v6.2h5.3v2.9
		h-5.3V215c0,1.4,0.2,2.4,0.7,3c0.5,0.6,1.3,0.9,2.4,0.9c0.8,0,1.6-0.2,2.2-0.7V221z"/>
	<path id="XMLID_20_" d="M67.5,308.9v-80.2h22.1c28.3,0,42.4,13,42.4,39.1c0,12.4-3.9,22.3-11.8,29.8c-7.8,7.5-18.4,11.3-31.5,11.3
		H67.5z M76.9,237.2v63.2h12c10.5,0,18.7-2.8,24.5-8.4c5.9-5.6,8.8-13.6,8.8-23.9c0-20.5-10.9-30.8-32.8-30.8H76.9L76.9,237.2z"/>
	<path id="XMLID_23_" d="M151.3,237.1c-1.6,0-3-0.6-4.2-1.7c-1.2-1.1-1.7-2.5-1.7-4.3c0-1.7,0.6-3.1,1.7-4.3
		c1.2-1.1,2.6-1.7,4.2-1.7c1.7,0,3.1,0.6,4.3,1.7c1.2,1.1,1.8,2.6,1.8,4.3c0,1.6-0.6,3-1.8,4.2C154.4,236.5,152.9,237.1,151.3,237.1
		z M155.7,308.9h-9.2v-57.3h9.2V308.9z"/>
	<path id="XMLID_24_" d="M204.2,260.9c-1.6-1.2-3.9-1.8-6.9-1.8c-3.9,0-7.2,1.8-9.8,5.5c-2.6,3.7-3.9,8.7-3.9,15.1v29.2h-9.2v-57.3
		h9.2v11.8h0.2c1.3-4,3.3-7.2,6-9.4c2.7-2.3,5.7-3.4,9-3.4c2.4,0,4.2,0.3,5.5,0.8V260.9z"/>
	<path id="XMLID_27_" d="M258.6,282.6h-40.4c0.1,6.4,1.9,11.3,5.1,14.8c3.3,3.5,7.8,5.2,13.5,5.2c6.4,0,12.4-2.1,17.8-6.4v8.6
		c-5,3.7-11.7,5.5-20,5.5c-8.1,0-14.4-2.6-19.1-7.8c-4.6-5.2-6.9-12.5-6.9-21.9c0-8.9,2.5-16.2,7.6-21.8c5.1-5.6,11.3-8.4,18.8-8.4
		s13.3,2.4,17.4,7.3c4.1,4.8,6.2,11.6,6.2,20.2L258.6,282.6L258.6,282.6z M249.2,274.8c0-5.3-1.3-9.4-3.8-12.4
		c-2.5-2.9-6-4.4-10.5-4.4c-4.3,0-8,1.5-11,4.6c-3,3.1-4.9,7.1-5.6,12.1H249.2z"/>
	<path id="XMLID_28_" d="M311.5,306.3c-4.4,2.6-9.6,4-15.7,4c-8.2,0-14.8-2.7-19.8-8c-5-5.3-7.5-12.2-7.5-20.7
		c0-9.4,2.7-17,8.1-22.7c5.4-5.7,12.6-8.6,21.6-8.6c5,0,9.5,0.9,13.3,2.8v9.4c-4.3-3-8.8-4.5-13.6-4.5c-5.9,0-10.7,2.1-14.4,6.3
		c-3.7,4.2-5.6,9.7-5.6,16.5c0,6.7,1.8,12,5.3,15.9c3.5,3.9,8.2,5.8,14.2,5.8c5,0,9.7-1.7,14.1-5L311.5,306.3L311.5,306.3z"/>
	<path id="XMLID_29_" d="M352,308.3c-2.2,1.2-5,1.8-8.6,1.8c-10,0-15-5.6-15-16.8v-33.9h-9.8v-7.8h9.8v-14l9.2-3v16.9H352v7.8h-14.4
		v32.3c0,3.8,0.7,6.6,2,8.2c1.3,1.6,3.5,2.5,6.5,2.5c2.3,0,4.3-0.6,6-1.9V308.3z"/>
	<path id="XMLID_30_" d="M420.8,308.9h-11.5l-18.5-30.7c-0.6-0.9-1.2-2.3-1.8-4h-0.2c-0.4,0.9-1,2.2-1.9,4l-19,30.7h-11.5l26.8-40.3
		l-24.7-39.9H370l16.4,28.2c1.1,1.9,2,3.7,2.9,5.6h0.2c1.2-2.5,2.2-4.4,3.1-5.8l17.1-28h10.8l-25.2,39.8L420.8,308.9z"/>
	<path id="XMLID_35_" d="M245.6,205.4c-1.6,0-2.9-0.5-4-1.6c-1.1-1.1-1.6-2.4-1.6-4c0-1.6,0.5-2.9,1.6-4c1.1-1.1,2.4-1.6,4-1.6
		c1.5,0,2.9,0.5,4,1.6c1.1,1.1,1.6,2.4,1.6,4c0,1.6-0.5,2.9-1.6,4C248.5,204.9,247.2,205.4,245.6,205.4z M245.6,194.9
		c-1.4,0-2.5,0.5-3.5,1.5c-1,1-1.5,2.1-1.5,3.5c0,1.4,0.5,2.5,1.5,3.5c1,1,2.1,1.4,3.5,1.4c1.4,0,2.5-0.5,3.5-1.4
		c1-1,1.4-2.1,1.4-3.5s-0.5-2.5-1.4-3.5C248.2,195.4,247,194.9,245.6,194.9z M248.3,203.3h-1.2l-0.8-1.7c-0.4-0.9-0.8-1.3-1.3-1.3
		h-0.7v3h-1v-7.1h2c0.8,0,1.5,0.2,1.9,0.5c0.5,0.3,0.7,0.8,0.7,1.4c0,0.5-0.2,0.9-0.5,1.2c-0.3,0.3-0.8,0.6-1.3,0.7v0
		c0.4,0.1,0.8,0.5,1.2,1.3L248.3,203.3z M244.4,197.1v2.4h1.1c1,0,1.5-0.4,1.5-1.2c0-0.4-0.1-0.8-0.4-0.9c-0.3-0.2-0.7-0.3-1.3-0.3
		H244.4z"/>
	<path id="XMLID_40_" d="M426.9,240.6c-1.6,0-2.9-0.5-4-1.6c-1.1-1.1-1.6-2.4-1.6-4c0-1.6,0.5-2.9,1.6-4c1.1-1.1,2.4-1.6,4-1.6
		c1.5,0,2.9,0.5,4,1.6c1.1,1.1,1.6,2.4,1.6,4c0,1.6-0.5,2.9-1.6,4C429.8,240,428.4,240.6,426.9,240.6z M426.9,230
		c-1.4,0-2.5,0.5-3.5,1.5c-1,1-1.5,2.1-1.5,3.5c0,1.4,0.5,2.5,1.5,3.5c1,1,2.1,1.4,3.5,1.4c1.4,0,2.5-0.5,3.5-1.4
		c1-1,1.4-2.1,1.4-3.5c0-1.4-0.5-2.5-1.4-3.5C429.4,230.5,428.3,230,426.9,230z M429.6,238.5h-1.2l-0.8-1.7
		c-0.4-0.9-0.8-1.3-1.3-1.3h-0.7v3h-1v-7.1h2c0.8,0,1.5,0.2,1.9,0.5c0.5,0.3,0.7,0.8,0.7,1.4c0,0.5-0.2,0.9-0.5,1.2
		c-0.3,0.3-0.8,0.6-1.3,0.7v0c0.4,0.1,0.8,0.5,1.2,1.3L429.6,238.5z M425.7,232.2v2.4h1.1c1,0,1.5-0.4,1.5-1.2
		c0-0.4-0.1-0.8-0.4-0.9c-0.3-0.2-0.7-0.3-1.3-0.3H425.7z"/>
</g>
</svg>
